<?xml version="1.0" encoding="UTF-8" standalone="no"?>
<!-- Created with Inkscape (http://www.inkscape.org/) -->

<svg
   xmlns:dc="http://purl.org/dc/elements/1.1/"
   xmlns:cc="http://creativecommons.org/ns#"
   xmlns:rdf="http://www.w3.org/1999/02/22-rdf-syntax-ns#"
   xmlns:svg="http://www.w3.org/2000/svg"
   xmlns="http://www.w3.org/2000/svg"
   xmlns:sodipodi="http://sodipodi.sourceforge.net/DTD/sodipodi-0.dtd"
   xmlns:inkscape="http://www.inkscape.org/namespaces/inkscape"
   id="svg2"
   version="1.1"
   inkscape:version="0.48.3.1 r9886"
   width="85"
   height="46"
   sodipodi:docname="alien_sp.png"
   inkscape:export-filename="/home/sid/Dropbox/allshare/course/870/projects/final/explosion/tracker/images/alien_sp1.png"
   inkscape:export-xdpi="89.999992"
   inkscape:export-ydpi="89.999992">
  <metadata
     id="metadata8">
    <rdf:RDF>
      <cc:Work
         rdf:about="">
        <dc:format>image/svg+xml</dc:format>
        <dc:type
           rdf:resource="http://purl.org/dc/dcmitype/StillImage" />
        <dc:title></dc:title>
      </cc:Work>
    </rdf:RDF>
  </metadata>
  <defs
     id="defs6" />
  <sodipodi:namedview
     pagecolor="#ffffff"
     bordercolor="#666666"
     borderopacity="1"
     objecttolerance="10"
     gridtolerance="10"
     guidetolerance="10"
     inkscape:pageopacity="0"
     inkscape:pageshadow="2"
     inkscape:window-width="1315"
     inkscape:window-height="744"
     id="namedview4"
     showgrid="false"
     inkscape:zoom="3.4352941"
     inkscape:cx="74.618208"
     inkscape:cy="13.294126"
     inkscape:window-x="51"
     inkscape:window-y="24"
     inkscape:window-maximized="1"
     inkscape:current-layer="svg2" />
  <rect
     style="fill:#ff00ff;fill-opacity:1;stroke:none"
     id="rect2987"
     width="99.861359"
     height="53.898548"
     x="-92.412598"
     y="-17.886959" />
  <path
     sodipodi:type="arc"
     style="fill:#000080;fill-opacity:1;stroke:none"
     id="path2989"
     sodipodi:cx="24.452055"
     sodipodi:cy="30.571918"
     sodipodi:rx="22.705479"
     sodipodi:ry="8.1506853"
     d="m 47.157534,30.571918 a 22.705479,8.1506853 0 1 1 -45.4109577,0 22.705479,8.1506853 0 1 1 45.4109577,0 z"
     transform="matrix(2.1868862,0,0,2.5033477,-95.936489,-62.356491)" />
  <rect
     style="fill:#ff00ff;fill-opacity:1;stroke:none"
     id="rect2987-4"
     width="100.98671"
     height="53.898548"
     x="-108.06956"
     y="-17.889"
     transform="scale(-1,1)" />
  <path
     sodipodi:type="arc"
     style="fill:#000080;fill-opacity:1;stroke:none"
     id="path2989-8"
     sodipodi:cx="24.452055"
     sodipodi:cy="30.571918"
     sodipodi:rx="22.705479"
     sodipodi:ry="8.1506853"
     d="m 47.157534,30.571918 a 22.705479,8.1506853 0 1 1 -45.4109577,0 22.705479,8.1506853 0 1 1 45.4109577,0 z"
     transform="matrix(-2.181363,0.18866524,0.14638576,2.4970254,106.79722,-67.3243)" />
  <rect
     style="fill:#cccccc;fill-opacity:1;stroke:none"
     id="rect3054"
     width="4.4561548"
     height="24.182514"
     x="-72.38253"
     y="6.8142076" />
  <rect
     style="fill:#cccccc;fill-opacity:1;stroke:none"
     id="rect3056"
     width="4.4561548"
     height="14.358369"
     x="-58.059174"
     y="18.905462" />
  <rect
     style="fill:#cccccc;fill-opacity:1;stroke:none"
     id="rect3058"
     width="4.4568739"
     height="13.602665"
     x="-44.92662"
     y="21.172579" />
  <rect
     style="fill:#cccccc;fill-opacity:1;stroke:none"
     id="rect3060"
     width="4.4568739"
     height="19.648294"
     x="-28.139275"
     y="14.371239" />
  <rect
     style="fill:#cccccc;fill-opacity:1;stroke:none"
     id="rect3064"
     width="4.4561548"
     height="19.648294"
     x="-15.089103"
     y="11.348428" />
  <rect
     style="fill:#cccccc;fill-opacity:1;stroke:none"
     id="rect3056-5"
     width="4.4614944"
     height="14.346695"
     x="-82.260986"
     y="21.413502"
     transform="matrix(-0.99628063,0.08616792,0.05852358,0.99828603,0,0)" />
  <rect
     style="fill:#cccccc;fill-opacity:1;stroke:none"
     id="rect3058-1"
     width="4.4622149"
     height="13.591606"
     x="-67.554611"
     y="24.150965"
     transform="matrix(-0.99628063,0.08616792,0.05852358,0.99828603,0,0)" />
  <rect
     style="fill:#cccccc;fill-opacity:1;stroke:none"
     id="rect3060-4"
     width="4.4622149"
     height="19.63232"
     x="-53.423443"
     y="18.771702"
     transform="matrix(-0.99628063,0.08616792,0.05852358,0.99828603,0,0)" />
  <rect
     style="fill:#cccccc;fill-opacity:1;stroke:none"
     id="rect3064-5"
     width="4.4614944"
     height="19.63232"
     x="-40.747166"
     y="17.106794"
     transform="matrix(-0.99628063,0.08616792,0.05852358,0.99828603,0,0)" />
  <path
     sodipodi:type="arc"
     style="fill:#333333;fill-opacity:1;stroke:none"
     id="path2989-6"
     sodipodi:cx="24.452055"
     sodipodi:cy="30.571918"
     sodipodi:rx="22.705479"
     sodipodi:ry="8.1506853"
     d="m 47.157534,30.571918 a 22.705479,8.1506853 0 1 1 -45.4109577,0 22.705479,8.1506853 0 1 1 45.4109577,0 z"
     transform="matrix(1.5630629,0,0,2.039765,-81.819048,-58.396583)" />
  <path
     sodipodi:type="arc"
     style="fill:#333333;fill-opacity:1;stroke:none"
     id="path2989-6-1"
     sodipodi:cx="24.452055"
     sodipodi:cy="30.571918"
     sodipodi:rx="22.705479"
     sodipodi:ry="8.1506853"
     d="m 47.157534,30.571918 a 22.705479,8.1506853 0 1 1 -45.4109577,0 22.705479,8.1506853 0 1 1 45.4109577,0 z"
     transform="matrix(-1.5591152,0.13484727,0.11927729,2.0346134,92.537095,-61.109459)" />
  <path
     sodipodi:type="star"
     style="fill:#cccccc;fill-opacity:1;stroke:none"
     id="path3153"
     sodipodi:sides="5"
     sodipodi:cx="30.273973"
     sodipodi:cy="13.106164"
     sodipodi:r1="8.2744999"
     sodipodi:r2="6.694211"
     sodipodi:arg1="0.88506682"
     sodipodi:arg2="1.5133853"
     inkscape:flatsided="true"
     inkscape:rounded="0"
     inkscape:randomized="0"
     d="m 35.513699,19.510274 -9.711231,0.558144 -3.531763,-9.063454 7.528482,-6.1596672 8.184621,5.2565702 z"
     inkscape:transform-center-x="0.048178578"
     inkscape:transform-center-y="-1.2269422"
     transform="matrix(1.3352944,0.07029112,-0.0578704,1.6218887,-83.077489,-26.160054)" />
  <path
     sodipodi:type="star"
     style="fill:#cccccc;fill-opacity:1;stroke:none"
     id="path3153-4"
     sodipodi:sides="5"
     sodipodi:cx="30.273973"
     sodipodi:cy="13.106164"
     sodipodi:r1="8.2744999"
     sodipodi:r2="6.694211"
     sodipodi:arg1="0.88506682"
     sodipodi:arg2="1.5133853"
     inkscape:flatsided="true"
     inkscape:rounded="0"
     inkscape:randomized="0"
     d="m 35.513699,19.510274 -9.711231,0.558144 -3.531763,-9.063454 7.528482,-6.1596672 8.184621,5.2565702 z"
     inkscape:transform-center-x="0.29077163"
     inkscape:transform-center-y="-0.94218686"
     transform="matrix(1.3360322,-0.04508382,0.03711732,1.6227849,19.105121,-22.508827)" />
  <rect
     style="fill:#ff00ff;fill-opacity:1;stroke:none"
     id="rect2987-1"
     width="99.861359"
     height="53.898548"
     x="108.00529"
     y="-17.788076" />
  <path
     sodipodi:type="arc"
     style="fill:#000080;fill-opacity:1;stroke:none"
     id="path2989-4"
     sodipodi:cx="24.452055"
     sodipodi:cy="30.571918"
     sodipodi:rx="22.705479"
     sodipodi:ry="8.1506853"
     d="m 47.157534,30.571918 a 22.705479,8.1506853 0 1 1 -45.4109577,0 22.705479,8.1506853 0 1 1 45.4109577,0 z"
     transform="matrix(2.1818193,0.18071389,-0.14021628,2.4975476,108.62038,-66.50633)" />
  <rect
     style="fill:#cccccc;fill-opacity:1;stroke:none"
     id="rect3054-6"
     width="4.4610538"
     height="24.164478"
     x="128.33849"
     y="-6.1528192"
     transform="matrix(0.99658738,0.0825445,-0.05605333,0.99842778,0,0)" />
  <rect
     style="fill:#cccccc;fill-opacity:1;stroke:none"
     id="rect3056-0"
     width="4.4610538"
     height="14.347658"
     x="142.67758"
     y="5.9294109"
     transform="matrix(0.99658738,0.0825445,-0.05605333,0.99842778,0,0)" />
  <rect
     style="fill:#cccccc;fill-opacity:1;stroke:none"
     id="rect3058-0"
     width="4.4617743"
     height="13.592518"
     x="155.82454"
     y="8.1948414"
     transform="matrix(0.99658738,0.0825445,-0.05605333,0.99842778,0,0)" />
  <rect
     style="fill:#cccccc;fill-opacity:1;stroke:none"
     id="rect3060-3"
     width="4.4617743"
     height="19.633638"
     x="172.63036"
     y="1.3985795"
     transform="matrix(0.99658738,0.0825445,-0.05605333,0.99842778,0,0)" />
  <rect
     style="fill:#cccccc;fill-opacity:1;stroke:none"
     id="rect3064-3"
     width="4.4610538"
     height="19.633638"
     x="185.69487"
     y="-1.6219811"
     transform="matrix(0.99658738,0.0825445,-0.05605333,0.99842778,0,0)" />
  <path
     sodipodi:type="arc"
     style="fill:#333333;fill-opacity:1;stroke:none"
     id="path2989-6-9"
     sodipodi:cx="24.452055"
     sodipodi:cy="30.571918"
     sodipodi:rx="22.705479"
     sodipodi:ry="8.1506853"
     d="m 47.157534,30.571918 a 22.705479,8.1506853 0 1 1 -45.4109577,0 22.705479,8.1506853 0 1 1 45.4109577,0 z"
     transform="matrix(1.5594413,0.12916409,-0.11425032,2.0350389,122.48332,-61.388998)" />
  <path
     sodipodi:type="star"
     style="fill:#cccccc;fill-opacity:1;stroke:none"
     id="path3153-5"
     sodipodi:sides="5"
     sodipodi:cx="30.273973"
     sodipodi:cy="13.106164"
     sodipodi:r1="8.2744999"
     sodipodi:r2="6.694211"
     sodipodi:arg1="0.88506682"
     sodipodi:arg2="1.5133853"
     inkscape:flatsided="true"
     inkscape:rounded="0"
     inkscape:randomized="0"
     d="m 35.513699,19.510274 -9.711231,0.558144 -3.531763,-9.063454 7.528482,-6.1596672 8.184621,5.2565702 z"
     inkscape:transform-center-x="-0.18440804"
     inkscape:transform-center-y="-1.0678331"
     transform="matrix(1.3282634,0.18047063,-0.14858074,1.6133487,119.42215,-29.331151)" />
  <rect
     style="fill:#ff00ff;fill-opacity:1;stroke:none"
     id="rect2987-5"
     width="99.861359"
     height="53.898548"
     x="207.72604"
     y="-17.787546" />
  <path
     sodipodi:type="arc"
     style="fill:#000080;fill-opacity:1;stroke:none"
     id="path2989-47"
     sodipodi:cx="24.452055"
     sodipodi:cy="30.571918"
     sodipodi:rx="22.705479"
     sodipodi:ry="8.1506853"
     d="m 47.157534,30.571918 a 22.705479,8.1506853 0 1 1 -45.4109577,0 22.705479,8.1506853 0 1 1 45.4109577,0 z"
     transform="matrix(2.1868862,0,0,2.5033477,204.20217,-62.257078)" />
  <rect
     style="fill:#cccccc;fill-opacity:1;stroke:none"
     id="rect3054-8"
     width="4.4561548"
     height="24.182514"
     x="227.75612"
     y="6.9136176" />
  <rect
     style="fill:#cccccc;fill-opacity:1;stroke:none"
     id="rect3056-2"
     width="4.4561548"
     height="14.358369"
     x="242.07948"
     y="19.004869" />
  <rect
     style="fill:#cccccc;fill-opacity:1;stroke:none"
     id="rect3058-7"
     width="4.4568739"
     height="13.602665"
     x="255.21202"
     y="21.271986" />
  <rect
     style="fill:#cccccc;fill-opacity:1;stroke:none"
     id="rect3060-6"
     width="4.4568739"
     height="19.648294"
     x="271.99939"
     y="14.470655" />
  <rect
     style="fill:#cccccc;fill-opacity:1;stroke:none"
     id="rect3064-36"
     width="4.4561548"
     height="19.648294"
     x="285.04953"
     y="11.447838" />
  <path
     sodipodi:type="arc"
     style="fill:#333333;fill-opacity:1;stroke:none"
     id="path2989-6-15"
     sodipodi:cx="24.452055"
     sodipodi:cy="30.571918"
     sodipodi:rx="22.705479"
     sodipodi:ry="8.1506853"
     d="m 47.157534,30.571918 a 22.705479,8.1506853 0 1 1 -45.4109577,0 22.705479,8.1506853 0 1 1 45.4109577,0 z"
     transform="matrix(1.5630629,0,0,2.039765,218.31962,-58.297171)" />
  <path
     sodipodi:type="star"
     style="fill:#cccccc;fill-opacity:1;stroke:none"
     id="path3153-57"
     sodipodi:sides="5"
     sodipodi:cx="30.273973"
     sodipodi:cy="13.106164"
     sodipodi:r1="8.2744999"
     sodipodi:r2="6.694211"
     sodipodi:arg1="0.88506682"
     sodipodi:arg2="1.5133853"
     inkscape:flatsided="true"
     inkscape:rounded="0"
     inkscape:randomized="0"
     d="m 35.513699,19.510274 -9.711231,0.558144 -3.531763,-9.063454 7.528482,-6.1596672 8.184621,5.2565702 z"
     inkscape:transform-center-x="0.048187301"
     inkscape:transform-center-y="-1.226943"
     transform="matrix(1.3352944,0.07029112,-0.0578704,1.6218887,217.06116,-26.060642)" />
</svg>
